<mxfile host="app.diagrams.net" modified="2024-03-28T12:10:44.770Z" agent="Mozilla/5.0 (Windows NT 10.0; Win64; x64) AppleWebKit/537.36 (KHTML, like Gecko) Chrome/123.0.0.0 Safari/537.36" version="24.2.0" etag="tILVVRTJ-VNqVh9uiuM3" type="github">
  <diagram name="第 1 页" id="_1jp00oBd382Ib0peQ2M">
    <mxGraphModel>
      <root>
        <mxCell id="0" />
        <mxCell id="1" parent="0" />
      </root>
    </mxGraphModel>
  </diagram>
</mxfile>
